<svg width="21" height="21" viewBox="0 0 21 21" fill="none" xmlns="http://www.w3.org/2000/svg">
<path d="M10.4992 11.725L6.21172 16.0125C6.0513 16.1729 5.84714 16.2531 5.59922 16.2531C5.3513 16.2531 5.14714 16.1729 4.98672 16.0125C4.8263 15.8521 4.74609 15.6479 4.74609 15.4C4.74609 15.1521 4.8263 14.9479 4.98672 14.7875L9.27422 10.5L4.98672 6.21251C4.8263 6.0521 4.74609 5.84793 4.74609 5.60001C4.74609 5.3521 4.8263 5.14793 4.98672 4.98751C5.14714 4.8271 5.3513 4.74689 5.59922 4.74689C5.84714 4.74689 6.0513 4.8271 6.21172 4.98751L10.4992 9.27501L14.7867 4.98751C14.9471 4.8271 15.1513 4.74689 15.3992 4.74689C15.6471 4.74689 15.8513 4.8271 16.0117 4.98751C16.1721 5.14793 16.2523 5.3521 16.2523 5.60001C16.2523 5.84793 16.1721 6.0521 16.0117 6.21251L11.7242 10.5L16.0117 14.7875C16.1721 14.9479 16.2523 15.1521 16.2523 15.4C16.2523 15.6479 16.1721 15.8521 16.0117 16.0125C15.8513 16.1729 15.6471 16.2531 15.3992 16.2531C15.1513 16.2531 14.9471 16.1729 14.7867 16.0125L10.4992 11.725Z" fill="white"/>
</svg>
