<svg width="24" height="24" viewBox="0 0 24 24" fill="none" xmlns="http://www.w3.org/2000/svg">
<path d="M22.269 17.9663C22.4359 17.677 22.5392 17.3513 22.5392 17.0582V6.89627C22.5392 6.60414 22.436 6.27808 22.269 5.98877L11.8965 11.9775L22.269 17.9663Z" fill="#00599C"/>
<path d="M12.8165 23.7349L21.6164 18.6548C21.8699 18.5084 22.1005 18.2556 22.2676 17.9663L11.8951 11.9775L1.52148 17.9663C1.68836 18.2556 1.91917 18.5082 2.17267 18.6548L10.9726 23.7349C11.4794 24.0278 12.3095 24.0278 12.8161 23.7349H12.8165Z" fill="#004482"/>
<path d="M22.2691 5.98898C22.102 5.69911 21.8714 5.44636 21.6179 5.30067L12.8177 0.219797C12.3109 -0.0732656 11.4811 -0.0732656 10.9742 0.219797L2.1743 5.30067C1.6673 5.5928 1.25293 6.3113 1.25293 6.8963V17.058C1.25293 17.3509 1.35605 17.6768 1.52312 17.9661L11.8964 11.9775L22.2691 5.98898Z" fill="#659AD2"/>
<path d="M11.8963 4.88154C7.98378 4.88154 4.80078 8.06472 4.80078 11.9773C4.80078 15.8898 7.98378 19.073 11.8963 19.073C14.421 19.073 16.7758 17.7142 18.0407 15.5274L14.9704 13.7503C14.3367 14.8453 13.1592 15.525 11.8963 15.525C9.94016 15.525 8.34847 13.9335 8.34847 11.9771C8.34847 10.0207 9.94034 8.42922 11.8963 8.42922C13.1582 8.42922 14.337 9.10966 14.9695 10.2039L18.0407 8.42697C16.7751 6.23997 14.421 4.88154 11.8963 4.88154ZM17.4154 10.7943V11.5832H16.6266V12.3712H17.4154V13.16H18.2035V12.3712H18.9915V11.5832H18.2035V10.7943H17.4154ZM20.3715 10.7943V11.5832H19.5833V12.3712H20.3715V13.16H21.1603V12.3712H21.9484V11.5832H21.1603V10.7943H20.3715Z" fill="white"/>
</svg>
