<svg width="24" height="24" viewBox="0 0 24 24" fill="none" xmlns="http://www.w3.org/2000/svg">
<path d="M4.42669 20.4007L2.74219 1.5H21.2582L19.5714 20.3978L11.9889 22.5L4.42669 20.4007Z" fill="#1572B6"/>
<path d="M12 20.8935L18.1275 19.1948L19.569 3.04578H12V20.8935Z" fill="#33A9DC"/>
<path d="M12 9.89329H15.0675L15.279 7.51954H12V5.20129H17.8125L17.757 5.82304L17.1877 12.2115H12V9.89329Z" fill="white"/>
<path d="M12.0139 15.9135L12.0034 15.9165L9.42194 15.219L9.25694 13.3702H6.92969L7.25444 17.01L12.0027 18.3285L12.0139 18.3255V15.9135Z" fill="#EBEBEB"/>
<path d="M14.8701 12.1133L14.5911 15.2175L12.0059 15.915V18.327L16.7579 17.01L16.7931 16.6185L17.1959 12.1133H14.8701Z" fill="white"/>
<path d="M12.0084 5.20129V7.51954H6.40892L6.36242 6.99829L6.25667 5.82304L6.20117 5.20129H12.0084ZM12.0002 9.89329V12.2115H9.45092L9.40442 11.6903L9.29942 10.515L9.24392 9.89329H12.0002Z" fill="#EBEBEB"/>
</svg>
