<svg width="34" height="34" viewBox="0 0 34 34" fill="none" xmlns="http://www.w3.org/2000/svg">
<path d="M16.7472 8.33459C12.089 8.33459 8.33167 12.0919 8.33167 16.7501C8.33167 21.4083 12.089 25.1656 16.7472 25.1656C21.4054 25.1656 25.1627 21.4083 25.1627 16.7501C25.1627 12.0919 21.4054 8.33459 16.7472 8.33459ZM16.7472 22.2213C13.7369 22.2213 11.276 19.7677 11.276 16.7501C11.276 13.7325 13.7296 11.2789 16.7472 11.2789C19.7648 11.2789 22.2184 13.7325 22.2184 16.7501C22.2184 19.7677 19.7574 22.2213 16.7472 22.2213ZM27.4698 7.99036C27.4698 9.08167 26.5909 9.95325 25.507 9.95325C24.4157 9.95325 23.5441 9.07434 23.5441 7.99036C23.5441 6.90637 24.423 6.02747 25.507 6.02747C26.5909 6.02747 27.4698 6.90637 27.4698 7.99036ZM33.0436 9.98254C32.9191 7.35315 32.3185 5.02405 30.3922 3.1051C28.4733 1.18616 26.1442 0.585571 23.5148 0.453735C20.8048 0.299927 12.6823 0.299927 9.97229 0.453735C7.35022 0.578247 5.02112 1.17883 3.09485 3.09778C1.16858 5.01672 0.575317 7.34582 0.443481 9.97522C0.289673 12.6852 0.289673 20.8077 0.443481 23.5177C0.567993 26.1471 1.16858 28.4762 3.09485 30.3951C5.02112 32.3141 7.3429 32.9147 9.97229 33.0465C12.6823 33.2003 20.8048 33.2003 23.5148 33.0465C26.1442 32.922 28.4733 32.3214 30.3922 30.3951C32.3112 28.4762 32.9117 26.1471 33.0436 23.5177C33.1974 20.8077 33.1974 12.6925 33.0436 9.98254ZM29.5426 26.4254C28.9713 27.861 27.8654 28.9669 26.4225 29.5455C24.2618 30.4025 19.1349 30.2047 16.7472 30.2047C14.3595 30.2047 9.22522 30.3951 7.0719 29.5455C5.63635 28.9742 4.5304 27.8683 3.95178 26.4254C3.09485 24.2648 3.2926 19.1378 3.2926 16.7501C3.2926 14.3624 3.10217 9.22815 3.95178 7.07483C4.52307 5.63928 5.62903 4.53332 7.0719 3.95471C9.23254 3.09778 14.3595 3.29553 16.7472 3.29553C19.1349 3.29553 24.2692 3.1051 26.4225 3.95471C27.858 4.526 28.964 5.63196 29.5426 7.07483C30.3995 9.23547 30.2018 14.3624 30.2018 16.7501C30.2018 19.1378 30.3995 24.2721 29.5426 26.4254Z" fill="currentColor"/>
</svg>
