<svg width="24" height="24" viewBox="0 0 24 24" fill="none" xmlns="http://www.w3.org/2000/svg">
<path d="M1.5 1.5H22.5V22.5H1.5V1.5Z" fill="#F5DE19"/>
<path d="M15.6061 17.9063C15.7853 18.2695 16.0633 18.5748 16.4083 18.7871C16.7532 18.9993 17.1511 19.11 17.5561 19.1063C18.3736 19.1063 18.8963 18.6975 18.8963 18.1313C18.8963 17.4563 18.3593 17.2148 17.4593 16.821L16.9658 16.6095C15.5408 16.0028 14.5958 15.243 14.5958 13.6365C14.5958 12.1568 15.7208 11.0295 17.4856 11.0295C18.0568 10.9884 18.6276 11.1163 19.1266 11.3973C19.6257 11.6783 20.031 12.1 20.2921 12.6098L18.7493 13.596C18.6487 13.3433 18.4738 13.127 18.2476 12.976C18.0213 12.8249 17.7546 12.7461 17.4826 12.75C17.3639 12.7381 17.244 12.7511 17.1306 12.7881C17.0173 12.8251 16.9128 12.8853 16.824 12.9649C16.7352 13.0445 16.6639 13.1417 16.6147 13.2504C16.5655 13.359 16.5395 13.4767 16.5383 13.596C16.5383 14.1878 16.9051 14.4278 17.7518 14.796L18.2453 15.0075C19.9223 15.7268 20.8703 16.4595 20.8703 18.1073C20.8703 19.884 19.4746 20.8575 17.6003 20.8575C16.8701 20.9036 16.1422 20.7376 15.5041 20.3795C14.8661 20.0214 14.3452 19.4865 14.0041 18.8393L15.6061 17.9063ZM8.63482 18.0773C8.94457 18.627 9.22657 19.092 9.90457 19.092C10.5526 19.092 10.9621 18.8385 10.9621 17.8523V11.142H12.9353V17.8785C12.9353 19.9215 11.7353 20.8515 9.98857 20.8515C9.37113 20.8853 8.75794 20.7314 8.22958 20.4101C7.70123 20.0889 7.28246 19.6152 7.02832 19.0515L8.63482 18.0773Z" fill="black"/>
</svg>
