<svg id="visual" viewBox="0 0 960 300" width="960" height="300" xmlns="http://www.w3.org/2000/svg" xmlns:xlink="http://www.w3.org/1999/xlink" version="1.1"><path d="M0 193L22.8 192.3C45.7 191.7 91.3 190.3 137 190.5C182.7 190.7 228.3 192.3 274 197.5C319.7 202.7 365.3 211.3 411.2 215.5C457 219.7 503 219.3 548.8 217C594.7 214.7 640.3 210.3 686 208.7C731.7 207 777.3 208 823 205.5C868.7 203 914.3 197 937.2 194L960 191L960 301L937.2 301C914.3 301 868.7 301 823 301C777.3 301 731.7 301 686 301C640.3 301 594.7 301 548.8 301C503 301 457 301 411.2 301C365.3 301 319.7 301 274 301C228.3 301 182.7 301 137 301C91.3 301 45.7 301 22.8 301L0 301Z" fill="#ffffff"></path><path d="M0 206L22.8 210.2C45.7 214.3 91.3 222.7 137 225.7C182.7 228.7 228.3 226.3 274 221.8C319.7 217.3 365.3 210.7 411.2 206.2C457 201.7 503 199.3 548.8 199.8C594.7 200.3 640.3 203.7 686 207.2C731.7 210.7 777.3 214.3 823 213.5C868.7 212.7 914.3 207.3 937.2 204.7L960 202L960 301L937.2 301C914.3 301 868.7 301 823 301C777.3 301 731.7 301 686 301C640.3 301 594.7 301 548.8 301C503 301 457 301 411.2 301C365.3 301 319.7 301 274 301C228.3 301 182.7 301 137 301C91.3 301 45.7 301 22.8 301L0 301Z" fill="#f6f5f5"></path><path d="M0 241L22.8 238.5C45.7 236 91.3 231 137 231.8C182.7 232.7 228.3 239.3 274 240.8C319.7 242.3 365.3 238.7 411.2 235.3C457 232 503 229 548.8 227.7C594.7 226.3 640.3 226.7 686 225.7C731.7 224.7 777.3 222.3 823 225.3C868.7 228.3 914.3 236.7 937.2 240.8L960 245L960 301L937.2 301C914.3 301 868.7 301 823 301C777.3 301 731.7 301 686 301C640.3 301 594.7 301 548.8 301C503 301 457 301 411.2 301C365.3 301 319.7 301 274 301C228.3 301 182.7 301 137 301C91.3 301 45.7 301 22.8 301L0 301Z" fill="#edecec"></path><path d="M0 262L22.8 261.7C45.7 261.3 91.3 260.7 137 261.7C182.7 262.7 228.3 265.3 274 266C319.7 266.7 365.3 265.3 411.2 260.7C457 256 503 248 548.8 248.7C594.7 249.3 640.3 258.7 686 262.8C731.7 267 777.3 266 823 266C868.7 266 914.3 267 937.2 267.5L960 268L960 301L937.2 301C914.3 301 868.7 301 823 301C777.3 301 731.7 301 686 301C640.3 301 594.7 301 548.8 301C503 301 457 301 411.2 301C365.3 301 319.7 301 274 301C228.3 301 182.7 301 137 301C91.3 301 45.7 301 22.8 301L0 301Z" fill="#e4e3e3"></path><path d="M0 268L22.8 270C45.7 272 91.3 276 137 279C182.7 282 228.3 284 274 284.2C319.7 284.3 365.3 282.7 411.2 281.8C457 281 503 281 548.8 279.3C594.7 277.7 640.3 274.3 686 272.7C731.7 271 777.3 271 823 272C868.7 273 914.3 275 937.2 276L960 277L960 301L937.2 301C914.3 301 868.7 301 823 301C777.3 301 731.7 301 686 301C640.3 301 594.7 301 548.8 301C503 301 457 301 411.2 301C365.3 301 319.7 301 274 301C228.3 301 182.7 301 137 301C91.3 301 45.7 301 22.8 301L0 301Z" fill="#dbdada"></path></svg>