<svg width="38" height="38" viewBox="0 0 38 38" fill="none" xmlns="http://www.w3.org/2000/svg">
<path d="M13.0488 15.8205H24.7676C25.415 15.8205 25.9395 15.2961 25.9395 14.6487V13.4768C25.9395 12.8293 25.415 12.3049 24.7676 12.3049H13.0488C12.4014 12.3049 11.877 12.8293 11.877 13.4768V14.6487C11.877 15.2961 12.4014 15.8205 13.0488 15.8205ZM11.877 21.6799C11.877 22.3274 12.4014 22.8518 13.0488 22.8518H24.7676C25.415 22.8518 25.9395 22.3274 25.9395 21.6799V20.508C25.9395 19.8606 25.415 19.3362 24.7676 19.3362H13.0488C12.4014 19.3362 11.877 19.8606 11.877 20.508V21.6799ZM18.9082 30.5517C17.7056 30.5517 16.5029 30.1811 15.4761 29.4392L0.158203 18.3738V33.9846C0.158203 35.9263 1.73218 37.5002 3.67383 37.5002H34.1426C36.0842 37.5002 37.6582 35.9263 37.6582 33.9846V18.3738L22.3403 29.4392C21.3135 30.1804 20.1108 30.5517 18.9082 30.5517ZM36.3113 11.935C35.6631 11.4267 35.0486 10.9485 34.1426 10.2644V7.03148C34.1426 5.08983 32.5686 3.51585 30.627 3.51585H24.947C24.7244 3.35472 24.5171 3.20384 24.2849 3.03538C23.0537 2.1367 20.6074 -0.0254088 18.9082 0.000225979C17.209 -0.0254088 14.7634 2.1367 13.5315 3.03538C13.2993 3.20384 13.092 3.35472 12.8694 3.51585H7.18945C5.2478 3.51585 3.67383 5.08983 3.67383 7.03148V10.2644C2.76782 10.9477 2.15332 11.4267 1.50513 11.935C1.08557 12.2638 0.746275 12.6838 0.512925 13.163C0.279575 13.6423 0.158275 14.1683 0.158203 14.7014L0.158203 15.4814L7.18945 20.5608V7.03148H30.627V20.5608L37.6582 15.4814V14.7014C37.6582 13.6218 37.1616 12.6015 36.3113 11.935Z" fill="white"/>
</svg>
