<svg width="24" height="24" viewBox="0 0 24 24" fill="none" xmlns="http://www.w3.org/2000/svg">
<path d="M11.9137 1.57504C6.58875 1.57504 6.9255 3.87754 6.9255 3.87754V6.27004H11.9895V7.02004H4.90875C4.90875 7.02004 1.5 6.60004 1.5 12.0038C1.5 17.4075 4.50975 17.1878 4.50975 17.1878H6.2475V14.667C6.2475 14.667 6.15 11.6573 9.1725 11.6573H14.244C14.244 11.6573 17.073 11.7023 17.073 8.91829V4.35004C17.073 4.35004 17.502 1.56604 11.9415 1.56604L11.9137 1.57504ZM9.11475 3.17779C9.29478 3.17325 9.47211 3.22219 9.62432 3.31844C9.77654 3.41469 9.89679 3.55391 9.96987 3.7185C10.043 3.88309 10.0656 4.06566 10.0349 4.24311C10.0042 4.42057 9.92161 4.58494 9.79751 4.71544C9.67341 4.84594 9.51339 4.93671 9.3377 4.97626C9.16201 5.01582 8.97854 5.00239 8.81049 4.93767C8.64243 4.87294 8.49734 4.75984 8.39357 4.61266C8.2898 4.46547 8.23201 4.29082 8.2275 4.11079V4.09579C8.2275 3.85431 8.32343 3.62272 8.49418 3.45197C8.66493 3.28122 8.89652 3.18529 9.138 3.18529L9.11475 3.17779Z" fill="url(#paint0_linear_172_123)"/>
<path d="M12.064 22.4325C17.389 22.4325 17.0522 20.1225 17.0522 20.1225V17.7375H11.989V16.9875H19.0915C19.0915 16.9875 22.5002 17.3685 22.5002 11.9962C22.5002 6.62396 19.4905 6.81221 19.4905 6.81221H17.7302V9.29996C17.7302 9.29996 17.8277 12.3097 14.8052 12.3097H9.73149C9.73149 12.3097 6.90024 12.267 6.90024 15.051V19.65C6.90024 19.65 6.47124 22.434 12.0317 22.434H12.0617L12.064 22.4325ZM14.863 20.8222C14.683 20.8268 14.5056 20.7778 14.3534 20.6816C14.2012 20.5853 14.081 20.4461 14.0079 20.2815C13.9348 20.1169 13.9122 19.9343 13.9428 19.7569C13.9735 19.5794 14.0561 19.4151 14.1802 19.2846C14.3043 19.1541 14.4644 19.0633 14.64 19.0237C14.8157 18.9842 14.9992 18.9976 15.1673 19.0623C15.3353 19.1271 15.4804 19.2402 15.5842 19.3873C15.6879 19.5345 15.7457 19.7092 15.7502 19.8892V19.9117C15.7502 20.1532 15.6543 20.3848 15.4836 20.5555C15.3128 20.7263 15.0812 20.8222 14.8397 20.8222H14.863Z" fill="url(#paint1_linear_172_123)"/>
<defs>
<linearGradient id="paint0_linear_172_123" x1="3.57537" y1="3.61722" x2="13.5404" y2="13.5596" gradientUnits="userSpaceOnUse">
<stop stop-color="#387EB8"/>
<stop offset="1" stop-color="#366994"/>
</linearGradient>
<linearGradient id="paint1_linear_172_123" x1="9.47087" y1="10.0939" x2="20.856" y2="20.0333" gradientUnits="userSpaceOnUse">
<stop stop-color="#FFE052"/>
<stop offset="1" stop-color="#FFC331"/>
</linearGradient>
</defs>
</svg>
